{
  "accessors": [
    {
      "bufferView": 2,
      "componentType": 5126,
      "count": 50,
      "max": [
        0.10371847450733185,
        0.068195633590221405,
        -0.067976132035255432
      ],
      "min": [
        -0.094998821616172791,
        -0.068195633590221405,
        -1.8750576972961426
      ],
      "type": "VEC3"
    },
    {
      "bufferView": 2,
      "byteOffset": 600,
      "componentType": 5126,
      "count": 50,
      "max": [
        0.99087697267532349,
        0.99955356121063232,
        0.90453982353210449
      ],
      "min": [
        -0.99087697267532349,
        -0.99955356121063232,
        -1
      ],
      "type": "VEC3"
    },
    {
      "bufferView": 3,
      "componentType": 5126,
      "count": 50,
      "max": [
        0.999991774559021,
        0.99779653549194336,
        0.88734430074691772,
        1
      ],
      "min": [
        -0.9994012713432312,
        -0.9032750129699707,
        -0.78420674800872803,
        1
      ],
      "type": "VEC4"
    },
    {
      "bufferView": 1,
      "componentType": 5126,
      "count": 50,
      "max": [
        0.77575850486755371,
        0.99877399206161499
      ],
      "min": [
        0.0012260283110663295,
        0.0012260283110663295
      ],
      "type": "VEC2"
    },
    {
      "bufferView": 0,
      "componentType": 5125,
      "count": 210,
      "max": [
        49
      ],
      "min": [
        0
      ],
      "type": "SCALAR"
    },
    {
      "bufferView": 2,
      "byteOffset": 1200,
      "componentType": 5126,
      "count": 72,
      "max": [
        0.19687780737876892,
        1.3578588962554932,
        1.1026089191436768
      ],
      "min": [
        -1.4735903739929199,
        -0.50011497735977173,
        -0.83836865425109863
      ],
      "type": "VEC3"
    },
    {
      "bufferView": 2,
      "byteOffset": 2064,
      "componentType": 5126,
      "count": 72,
      "max": [
        0.99080467224121094,
        0.61377143859863281,
        0.99330192804336548
      ],
      "min": [
        -0.56817936897277832,
        -0.91291069984436035,
        -0.33165267109870911
      ],
      "type": "VEC3"
    },
    {
      "bufferView": 3,
      "byteOffset": 800,
      "componentType": 5126,
      "count": 72,
      "max": [
        0.14987872540950775,
        0.11720915883779526,
        0.99984633922576904,
        1
      ],
      "min": [
        -0.9971613883972168,
        -0.76108276844024658,
        -0.45267945528030396,
        -1
      ],
      "type": "VEC4"
    },
    {
      "bufferView": 1,
      "byteOffset": 400,
      "componentType": 5126,
      "count": 72,
      "max": [
        0.98690700531005859,
        1.006514310836792
      ],
      "min": [
        0.013092964887619019,
        0.032977908849716187
      ],
      "type": "VEC2"
    },
    {
      "bufferView": 0,
      "byteOffset": 840,
      "componentType": 5125,
      "count": 216,
      "max": [
        71
      ],
      "min": [
        0
      ],
      "type": "SCALAR"
    },
    {
      "bufferView": 2,
      "byteOffset": 2928,
      "componentType": 5126,
      "count": 17,
      "max": [
        7.1057718287192984e-07,
        3.759119987487793,
        3.7591202259063721
      ],
      "min": [
        -1.0088273256769753e-06,
        -3.759119987487793,
        -3.7591202259063721
      ],
      "type": "VEC3"
    },
    {
      "bufferView": 2,
      "byteOffset": 3132,
      "componentType": 5126,
      "count": 17,
      "max": [
        -1,
        0,
        0
      ],
      "min": [
        -1,
        0,
        0
      ],
      "type": "VEC3"
    },
    {
      "bufferView": 3,
      "byteOffset": 1952,
      "componentType": 5126,
      "count": 17,
      "max": [
        0,
        0.55556982755661011,
        -0.83146989345550537,
        1
      ],
      "min": [
        0,
        0.55556929111480713,
        -0.83147037029266357,
        1
      ],
      "type": "VEC4"
    },
    {
      "bufferView": 1,
      "byteOffset": 976,
      "componentType": 5126,
      "count": 17,
      "max": [
        0.99900192022323608,
        0.99900186061859131
      ],
      "min": [
        0.00099800387397408485,
        0.00099800387397408485
      ],
      "type": "VEC2"
    },
    {
      "bufferView": 0,
      "byteOffset": 1704,
      "componentType": 5125,
      "count": 48,
      "max": [
        16
      ],
      "min": [
        0
      ],
      "type": "SCALAR"
    },
    {
      "bufferView": 2,
      "byteOffset": 3336,
      "componentType": 5126,
      "count": 504,
      "max": [
        1.7784035205841064,
        2.2118546962738037,
        1.2436553239822388
      ],
      "min": [
        -2.5669059753417969,
        -0.63618791103363037,
        -3.2075560092926025
      ],
      "type": "VEC3"
    },
    {
      "bufferView": 2,
      "byteOffset": 9384,
      "componentType": 5126,
      "count": 504,
      "max": [
        0.96947175264358521,
        0.98454380035400391,
        0.99901002645492554
      ],
      "min": [
        -0.98041027784347534,
        -0.95406550168991089,
        -0.99636232852935791
      ],
      "type": "VEC3"
    },
    {
      "bufferView": 3,
      "byteOffset": 2224,
      "componentType": 5126,
      "count": 504,
      "max": [
        0.98271411657333374,
        0.9968867301940918,
        0.98524737358093262,
        1
      ],
      "min": [
        -0.98642808198928833,
        -0.97580814361572266,
        -0.99909389019012451,
        1
      ],
      "type": "VEC4"
    },
    {
      "bufferView": 1,
      "byteOffset": 1112,
      "componentType": 5126,
      "count": 504,
      "max": [
        0.84135591983795166,
        0.99618744850158691
      ],
      "min": [
        0.15256404876708984,
        0.0058432226069271564
      ],
      "type": "VEC2"
    },
    {
      "bufferView": 0,
      "byteOffset": 1896,
      "componentType": 5125,
      "count": 756,
      "max": [
        503
      ],
      "min": [
        0
      ],
      "type": "SCALAR"
    },
    {
      "bufferView": 2,
      "byteOffset": 15432,
      "componentType": 5126,
      "count": 2820,
      "max": [
        2.1853175163269043,
        0.54549950361251831,
        10.187443733215332
      ],
      "min": [
        -1.8444938659667969,
        -2.5112009048461914,
        -0.0022927857935428619
      ],
      "type": "VEC3"
    },
    {
      "bufferView": 2,
      "byteOffset": 49272,
      "componentType": 5126,
      "count": 2820,
      "max": [
        0.99999833106994629,
        0.9997401237487793,
        0.99919807910919189
      ],
      "min": [
        -0.99992179870605469,
        -0.99999773502349854,
        -1
      ],
      "type": "VEC3"
    },
    {
      "bufferView": 3,
      "byteOffset": 10288,
      "componentType": 5126,
      "count": 2820,
      "max": [
        0.99949604272842407,
        0.99968445301055908,
        0.99986189603805542,
        1
      ],
      "min": [
        -0.9989696741104126,
        -0.99919801950454712,
        -0.99940210580825806,
        -1
      ],
      "type": "VEC4"
    },
    {
      "bufferView": 1,
      "byteOffset": 5144,
      "componentType": 5126,
      "count": 2820,
      "max": [
        0.99635696411132812,
        0.99279087781906128
      ],
      "min": [
        0.0077716680243611336,
        0.015007935464382172
      ],
      "type": "VEC2"
    },
    {
      "bufferView": 0,
      "byteOffset": 4920,
      "componentType": 5125,
      "count": 14142,
      "max": [
        2819
      ],
      "min": [
        0
      ],
      "type": "SCALAR"
    },
    {
      "bufferView": 2,
      "byteOffset": 83112,
      "componentType": 5126,
      "count": 432,
      "max": [
        1.7616820335388184,
        2.7846555709838867,
        1.9007216691970825
      ],
      "min": [
        -2.9586741924285889,
        -0.67506301403045654,
        -3.6311664581298828
      ],
      "type": "VEC3"
    },
    {
      "bufferView": 2,
      "byteOffset": 88296,
      "componentType": 5126,
      "count": 432,
      "max": [
        0.98313754796981812,
        0.9850766658782959,
        0.9600379467010498
      ],
      "min": [
        -0.99086606502532959,
        -0.98775947093963623,
        -0.9975394606590271
      ],
      "type": "VEC3"
    },
    {
      "bufferView": 3,
      "byteOffset": 55408,
      "componentType": 5126,
      "count": 432,
      "max": [
        0.99611246585845947,
        0.99817806482315063,
        0.98391968011856079,
        1
      ],
      "min": [
        -0.99055743217468262,
        -0.99808424711227417,
        -0.97999167442321777,
        -1
      ],
      "type": "VEC4"
    },
    {
      "bufferView": 1,
      "byteOffset": 27704,
      "componentType": 5126,
      "count": 432,
      "max": [
        0.99916410446166992,
        0.94512337446212769
      ],
      "min": [
        0.00083584338426589966,
        0.10914596915245056
      ],
      "type": "VEC2"
    },
    {
      "bufferView": 0,
      "byteOffset": 61488,
      "componentType": 5125,
      "count": 1620,
      "max": [
        431
      ],
      "min": [
        0
      ],
      "type": "SCALAR"
    }
  ],
  "asset": {
    "extras": {
      "author": "Luciano Soares (https://sketchfab.com/lucianosoares)",
      "license": "CC-BY-NC-4.0 (http://creativecommons.org/licenses/by-nc/4.0/)",
      "source": "https://sketchfab.com/models/f3e9bd2af1554d9cb307fcdfe0d8f000",
      "title": "Ghost Rider - Robbie Reyes"
    },
    "generator": "Sketchfab-3.20.7",
    "version": "2.0"
  },
  "bufferViews": [
    {
      "buffer": 0,
      "byteLength": 67968,
      "byteOffset": 0,
      "name": "floatBufferViews",
      "target": 34963
    },
    {
      "buffer": 0,
      "byteLength": 31160,
      "byteOffset": 67968,
      "byteStride": 8,
      "name": "floatBufferViews",
      "target": 34962
    },
    {
      "buffer": 0,
      "byteLength": 93480,
      "byteOffset": 99128,
      "byteStride": 12,
      "name": "floatBufferViews",
      "target": 34962
    },
    {
      "buffer": 0,
      "byteLength": 62320,
      "byteOffset": 192608,
      "byteStride": 16,
      "name": "floatBufferViews",
      "target": 34962
    }
  ],
  "buffers": [
    {
      "byteLength": 254928,
      "uri": "scene.bin"
    }
  ],
  "images": [
    {
      "uri": "textures/knife_baseColor.png"
    },
    {
      "uri": "textures/fogo_corrente_baseColor.png"
    },
    {
      "uri": "textures/ghost_baseColor.png"
    },
    {
      "uri": "textures/ghost_emissive.png"
    },
    {
      "uri": "textures/ghost_normal.png"
    },
    {
      "uri": "textures/corrente_giro_baseColor.png"
    },
    {
      "uri": "textures/corrente_giro_emissive.png"
    },
    {
      "uri": "textures/fogo_cabeca_baseColor.png"
    },
    {
      "uri": "textures/corrente_baseColor.png"
    }
  ],
  "materials": [
    {
      "doubleSided": false,
      "name": "knife",
      "pbrMetallicRoughness": {
        "baseColorFactor": [
          1,
          1,
          1,
          1
        ],
        "baseColorTexture": {
          "index": 0,
          "texCoord": 0
        },
        "metallicFactor": 1,
        "roughnessFactor": 0.34999999999999998
      }
    },
    {
      "alphaMode": "BLEND",
      "doubleSided": true,
      "emissiveFactor": [
        1,
        0.3743154528,
        0.015544550100000002
      ],
      "name": "fogo_cabeca",
      "pbrMetallicRoughness": {
        "baseColorFactor": [
          1,
          1,
          1,
          1
        ],
        "baseColorTexture": {
          "index": 7,
          "texCoord": 0
        },
        "metallicFactor": 0,
        "roughnessFactor": 0
      }
    },
    {
      "alphaMode": "BLEND",
      "doubleSided": true,
      "emissiveFactor": [
        1,
        1,
        1
      ],
      "emissiveTexture": {
        "index": 6,
        "texCoord": 0
      },
      "name": "corrente_giro",
      "pbrMetallicRoughness": {
        "baseColorFactor": [
          1,
          1,
          1,
          1
        ],
        "baseColorTexture": {
          "index": 5,
          "texCoord": 0
        },
        "metallicFactor": 1,
        "roughnessFactor": 0.5
      }
    },
    {
      "alphaMode": "BLEND",
      "doubleSided": true,
      "emissiveFactor": [
        0.2887902202,
        0.062385908800000001,
        0.0025907583500000002
      ],
      "name": "corrente",
      "pbrMetallicRoughness": {
        "baseColorFactor": [
          1,
          1,
          1,
          1
        ],
        "baseColorTexture": {
          "index": 8,
          "texCoord": 0
        },
        "metallicFactor": 1,
        "roughnessFactor": 0.5
      }
    },
    {
      "alphaMode": "BLEND",
      "doubleSided": false,
      "emissiveFactor": [
        1,
        1,
        1
      ],
      "emissiveTexture": {
        "index": 3,
        "texCoord": 0
      },
      "name": "ghost",
      "normalTexture": {
        "index": 4,
        "scale": 1,
        "texCoord": 0
      },
      "pbrMetallicRoughness": {
        "baseColorFactor": [
          1,
          1,
          1,
          1
        ],
        "baseColorTexture": {
          "index": 2,
          "texCoord": 0
        },
        "metallicFactor": 0,
        "roughnessFactor": 0.59999999999999998
      }
    },
    {
      "alphaMode": "BLEND",
      "doubleSided": true,
      "emissiveFactor": [
        1,
        0.38158253670000003,
        0.0166667559
      ],
      "name": "fogo_corrente",
      "pbrMetallicRoughness": {
        "baseColorFactor": [
          1,
          1,
          1,
          1
        ],
        "baseColorTexture": {
          "index": 1,
          "texCoord": 0
        },
        "metallicFactor": 0,
        "roughnessFactor": 0
      }
    }
  ],
  "meshes": [
    {
      "name": "knife_knife_0",
      "primitives": [
        {
          "attributes": {
            "NORMAL": 1,
            "POSITION": 0,
            "TANGENT": 2,
            "TEXCOORD_0": 3
          },
          "indices": 4,
          "material": 0,
          "mode": 4
        }
      ]
    },
    {
      "name": "fogo_cabeca_fogo_cabeca_0",
      "primitives": [
        {
          "attributes": {
            "NORMAL": 6,
            "POSITION": 5,
            "TANGENT": 7,
            "TEXCOORD_0": 8
          },
          "indices": 9,
          "material": 1,
          "mode": 4
        }
      ]
    },
    {
      "name": "corrente_giro_corrente_giro_0",
      "primitives": [
        {
          "attributes": {
            "NORMAL": 11,
            "POSITION": 10,
            "TANGENT": 12,
            "TEXCOORD_0": 13
          },
          "indices": 14,
          "material": 2,
          "mode": 4
        }
      ]
    },
    {
      "name": "corrente_corrente_0",
      "primitives": [
        {
          "attributes": {
            "NORMAL": 16,
            "POSITION": 15,
            "TANGENT": 17,
            "TEXCOORD_0": 18
          },
          "indices": 19,
          "material": 3,
          "mode": 4
        }
      ]
    },
    {
      "name": "ghost_ghost_0",
      "primitives": [
        {
          "attributes": {
            "NORMAL": 21,
            "POSITION": 20,
            "TANGENT": 22,
            "TEXCOORD_0": 23
          },
          "indices": 24,
          "material": 4,
          "mode": 4
        }
      ]
    },
    {
      "name": "fogo_corrente_fogo_corrente_0",
      "primitives": [
        {
          "attributes": {
            "NORMAL": 26,
            "POSITION": 25,
            "TANGENT": 27,
            "TEXCOORD_0": 28
          },
          "indices": 29,
          "material": 5,
          "mode": 4
        }
      ]
    }
  ],
  "nodes": [
    {
      "children": [
        1
      ],
      "name": "RootNode (gltf orientation matrix)",
      "rotation": [
        -0.70710678118654746,
        -0,
        -0,
        0.70710678118654757
      ]
    },
    {
      "children": [
        2
      ],
      "name": "RootNode (model correction matrix)"
    },
    {
      "children": [
        3
      ],
      "matrix": [
        1,
        0,
        0,
        0,
        0,
        0,
        1,
        0,
        0,
        -1,
        0,
        0,
        0,
        0,
        0,
        1
      ],
      "name": "5a8ec3da08104df18bd800b293f7862e.fbx"
    },
    {
      "children": [
        4
      ],
      "name": "RootNode"
    },
    {
      "children": [
        5,
        7,
        9,
        11,
        13,
        15
      ],
      "matrix": [
        100,
        0,
        0,
        0,
        0,
        -1.6292067939183141e-05,
        -99.999999999998678,
        0,
        0,
        99.999999999998678,
        -1.6292067939183141e-05,
        0,
        0,
        0,
        0,
        1
      ],
      "name": "GhostRider"
    },
    {
      "children": [
        6
      ],
      "matrix": [
        1,
        0,
        0,
        0,
        0,
        1,
        -2.646977960169688e-23,
        0,
        0,
        2.646977960169688e-23,
        1,
        0,
        0.35670530796051025,
        -1.5560997724533081,
        7.1559181213378906,
        1
      ],
      "name": "knife"
    },
    {
      "mesh": 0,
      "name": "knife_knife_0"
    },
    {
      "children": [
        8
      ],
      "matrix": [
        0.86253788275057441,
        -0.30414976001158422,
        -0.40437755266058756,
        0,
        0.48582798297320251,
        0.72116770315105705,
        0.49385049852361046,
        0,
        0.14141951182126339,
        -0.62242265706131794,
        0.76979888232862448,
        0,
        0.32401889562606812,
        -1.0635367631912231,
        9.4354400634765625,
        1
      ],
      "name": "fogo_cabeca"
    },
    {
      "mesh": 1,
      "name": "fogo_cabeca_fogo_cabeca_0"
    },
    {
      "children": [
        10
      ],
      "matrix": [
        0.99918868703414232,
        5.7108718884848273e-09,
        -0.040270700073649898,
        0,
        -5.1204004899586676e-09,
        0.99999999999999989,
        1.4765714148166103e-08,
        0,
        0.040270700073649981,
        -1.4547532420439453e-08,
        0.99918868703414221,
        0,
        2.2451877593994141,
        -2.2449624538421631,
        6.0546364784240723,
        1
      ],
      "name": "corrente_giro"
    },
    {
      "mesh": 2,
      "name": "corrente_giro_corrente_giro_0"
    },
    {
      "children": [
        12
      ],
      "matrix": [
        1,
        -1.4210854715202007e-14,
        7.1054273576010019e-15,
        0,
        1.4210854609322885e-14,
        0.99999999999999989,
        1.4901161193847679e-08,
        0,
        -7.1054275693592387e-15,
        -1.4901161193847679e-08,
        0.99999999999999989,
        0,
        0.47938370704650879,
        -1.7144818305969238,
        7.7676181793212891,
        1
      ],
      "name": "corrente"
    },
    {
      "mesh": 3,
      "name": "corrente_corrente_0"
    },
    {
      "children": [
        14
      ],
      "matrix": [
        1,
        0,
        0,
        0,
        0,
        1,
        -2.646977960169688e-23,
        0,
        0,
        2.646977960169688e-23,
        1,
        0,
        0,
        0,
        0,
        1
      ],
      "name": "ghost"
    },
    {
      "mesh": 4,
      "name": "ghost_ghost_0"
    },
    {
      "children": [
        16
      ],
      "matrix": [
        1,
        0,
        0,
        0,
        0,
        1,
        -2.646977960169688e-23,
        0,
        0,
        2.646977960169688e-23,
        1,
        0,
        0.47938370704650879,
        -1.7144818305969238,
        7.7676181793212891,
        1
      ],
      "name": "fogo_corrente"
    },
    {
      "mesh": 5,
      "name": "fogo_corrente_fogo_corrente_0"
    }
  ],
  "samplers": [
    {
      "magFilter": 9729,
      "minFilter": 9987,
      "wrapS": 10497,
      "wrapT": 10497
    }
  ],
  "scene": 0,
  "scenes": [
    {
      "name": "OSG_Scene",
      "nodes": [
        0
      ]
    }
  ],
  "textures": [
    {
      "sampler": 0,
      "source": 0
    },
    {
      "sampler": 0,
      "source": 1
    },
    {
      "sampler": 0,
      "source": 2
    },
    {
      "sampler": 0,
      "source": 3
    },
    {
      "sampler": 0,
      "source": 4
    },
    {
      "sampler": 0,
      "source": 5
    },
    {
      "sampler": 0,
      "source": 6
    },
    {
      "sampler": 0,
      "source": 7
    },
    {
      "sampler": 0,
      "source": 8
    }
  ]
}

